<svg width="24" height="24" viewBox="0 0 24 24" fill="none" xmlns="http://www.w3.org/2000/svg">
<path d="M21.1539 18.5383C20.7543 19.737 19.7027 20.5993 18.4439 20.7079C16.8526 20.8452 14.5037 21 12 21C9.49634 21 7.14745 20.8452 5.55612 20.7079C4.29725 20.5993 3.24567 19.737 2.8461 18.5383C2.68939 18.0682 3.09099 17.602 3.57846 17.6912C6.13164 18.1586 7.58325 18.5 12 18.5C16.4168 18.5 17.8683 18.1586 20.4215 17.6912C20.909 17.602 21.3106 18.0682 21.1539 18.5383Z" fill="#56A28F"/>
<path d="M20.7351 9.35825C21.5106 9.3285 21.6996 8.79538 21.5 8C20.5942 4.39412 15.5 3 12 3C8.5 3 3.40585 4.39412 2.5 8C2.30035 8.79538 2.4894 9.3285 3.2649 9.35825C9 8.5 15 8.5 20.7351 9.35825Z" fill="#56A28F"/>
<path d="M22 11.7628C22 12.17 21.6737 12.5 21.2666 12.5C16.9635 12.5 7.02387 12.5 2.72668 12.5C2.32317 12.5 2 12.1729 2 11.7694C2 11.4289 2.23071 11.1331 2.56569 11.0719C6.95349 10.27 17.3129 10.2678 21.443 11.0655C21.775 11.1296 22 11.4247 22 11.7628Z" fill="#56A28F"/>
<path d="M22 15.1233C22 14.5029 21.4972 14 20.8768 14C19.8597 14 18.6327 14 17 14C16.1961 14 14.8559 15.5 14 15.5C13.1752 15.5 11.8358 14 11 14C7.83349 14 5.06109 14 3.11242 14C2.49757 14 2 14.4984 2 15.1133C2 15.6322 2.35845 16.0841 2.87045 16.1684C7.30731 16.8993 16.9311 16.902 21.1434 16.1767C21.6512 16.0892 22 15.6386 22 15.1233Z" fill="#56A28F"/>
</svg>
