<svg width="24" height="24" viewBox="0 0 24 24" fill="none" xmlns="http://www.w3.org/2000/svg">
<path fill-rule="evenodd" clip-rule="evenodd" d="M1.12428 5.10874C1.16036 4.06842 1.99588 3.23243 3.03606 3.19262C9.76535 2.9351 14.216 2.93627 20.9474 3.19326C21.9836 3.23282 22.8177 4.06256 22.8585 5.09871C23.0475 9.89508 23.0465 13.204 22.8594 17.9505C22.8183 18.9949 21.9715 19.8282 20.9267 19.8577C14.2157 20.0472 9.76594 20.0475 3.05718 19.858C2.00821 19.8284 1.15983 18.9888 1.12346 17.9401C0.959182 13.2025 0.958237 9.8962 1.12428 5.10874ZM11.1 9.91055C8.27837 10.03 6.70194 10.0296 3.9 9.91055C3.4032 9.91055 3 9.50849 3 9.01308C3 8.51768 3.4032 8.11562 3.9 8.11562C6.7525 7.96015 8.32702 7.96278 11.1 8.11562C11.5968 8.11562 12 8.51768 12 9.01308C12 9.50849 11.5968 9.91055 11.1 9.91055ZM3.96552 13.9151C5.93646 14.028 7.04777 14.0286 9.03448 13.9151C9.56745 13.9151 10 13.5035 10 12.9964C10 12.4892 9.56745 12.0776 9.03448 12.0776C7.04574 11.9739 5.93181 11.9743 3.96552 12.0776C3.43255 12.0776 3 12.4892 3 12.9964C3 13.5035 3.43255 13.9151 3.96552 13.9151ZM17.5 13C19.433 13 21 11.433 21 9.5C21 7.567 19.433 6 17.5 6C15.567 6 14 7.567 14 9.5C14 11.433 15.567 13 17.5 13ZM15.2358 15.198C15.2732 14.8637 15.6244 14.6606 15.9478 14.7531C16.431 14.8912 16.9531 14.9666 17.4977 14.9666C18.0424 14.9666 18.5646 14.8912 19.0478 14.753C19.3712 14.6605 19.7225 14.8637 19.7599 15.198L19.9954 17.3042C20.0092 17.3832 19.9599 17.4607 19.871 17.5C19.7821 17.5393 19.6714 17.5324 19.5916 17.4827L19.5891 17.4812L19.5798 17.4754C19.5712 17.4703 19.5583 17.4624 19.5412 17.4524C19.507 17.4322 19.4565 17.4031 19.3926 17.3679C19.2645 17.2974 19.0839 17.2036 18.8737 17.11C18.4428 16.9181 17.9286 16.746 17.4977 16.746C17.0668 16.746 16.5526 16.9181 16.1218 17.11C15.9116 17.2036 15.7309 17.2974 15.6028 17.3679C15.5389 17.4031 15.4884 17.4322 15.4542 17.4524C15.4372 17.4624 15.4242 17.4703 15.4157 17.4754L15.4063 17.4812L15.4038 17.4827C15.324 17.5324 15.2133 17.5393 15.1244 17.5C15.0355 17.4607 14.9862 17.3831 15 17.3042L15.2358 15.198Z" fill="#A5B833"/>
</svg>
