<svg width="24" height="24" viewBox="0 0 24 24" fill="none" xmlns="http://www.w3.org/2000/svg">
<path fill-rule="evenodd" clip-rule="evenodd" d="M5 8.92308C5 4.96703 7.582 2 12 2C16.418 2 19 4.96703 19 8.92308C19 13.0433 16.2136 16.8698 13.6533 20.3859C13.4332 20.6881 13.2148 20.9881 13 21.2857C12.416 22.2381 11.584 22.2381 11 21.2857C8.28601 17.5255 5 12.8791 5 8.92308ZM12 11C10.8952 11 10 10.1048 10 9C10 7.8952 10.8952 7 12 7C13.1048 7 14 7.8952 14 9C14 10.1048 13.1048 11 12 11Z" fill="#CE5151"/>
</svg>
